<?xml version="1.0" standalone="no"?>
<!DOCTYPE svg PUBLIC "-//W3C//DTD SVG 20010904//EN"
 "http://www.w3.org/TR/2001/REC-SVG-20010904/DTD/svg10.dtd">
<svg version="1.0" xmlns="http://www.w3.org/2000/svg"
 width="700.000000pt" height="700.000000pt" viewBox="0 0 700.000000 700.000000"
 preserveAspectRatio="xMidYMid meet">
<metadata>
Created by potrace 1.14, written by Peter Selinger 2001-2017
</metadata>
<g transform="translate(0.000000,700.000000) scale(0.100000,-0.100000)"
fill="#000000" stroke="none">
<path d="M880 6994 c-127 -19 -224 -49 -335 -106 -269 -135 -461 -388 -524
-688 -19 -93 -20 -141 -20 -2700 0 -2485 1 -2609 18 -2690 37 -169 100 -307
198 -429 157 -197 357 -317 608 -365 71 -13 382 -15 2665 -16 1525 0 2608 4
2640 9 106 18 124 22 184 42 293 97 533 335 631 625 58 171 54 -1 54 2829 0
2547 0 2602 -19 2690 -58 263 -186 462 -400 619 -95 70 -258 143 -359 161 -14
2 -48 9 -76 14 -47 9 -5203 14 -5265 5z"/>
</g>
</svg>
